<svg width="74" height="50" viewBox="0 0 74 50" fill="none" xmlns="http://www.w3.org/2000/svg">
<path d="M72.4481 7.84137C72.0405 6.34494 71.2269 4.97677 70.089 3.87404C68.9508 2.7713 67.5284 1.97276 65.9638 1.55845C60.1744 0.0152662 36.9776 0.015267 36.9776 0.015267C27.3052 -0.0953843 17.6354 0.395537 8.03018 1.48497C6.46514 1.92954 5.04493 2.74648 3.90364 3.85867C2.76236 4.97084 1.93764 6.34154 1.50734 7.84137C0.469618 13.5068 -0.0341421 19.2494 0.00207046 24.9999C-0.0366253 30.7508 0.467155 36.4935 1.50734 42.1588C1.92878 43.6545 2.75173 45.0202 3.89535 46.122C5.03895 47.2236 6.46387 48.0228 8.03018 48.4416C13.8969 49.9847 36.9776 49.9847 36.9776 49.9847C46.6629 50.0956 56.3457 49.6046 65.9638 48.5149C67.5284 48.1008 68.9508 47.3023 70.089 46.1995C71.2269 45.0967 72.0405 43.7285 72.4481 42.2322C73.5123 36.5694 74.029 30.826 73.992 25.0736C74.0718 19.2953 73.5545 13.5234 72.4481 7.84137ZM29.6057 35.6922V14.308L48.9042 24.9999L29.6057 35.6922Z" fill="#9C0F0F"/>
</svg>
