<svg xmlns="http://www.w3.org/2000/svg" xmlns:xlink="http://www.w3.org/1999/xlink" width="0" height="0" style="position:absolute">
  <symbol id="bed" viewBox="0 0 18 18">
    <path d="M4.12734 2.91094C3.52969 3.12187 3.1043 3.55078 2.90039 4.15547L2.8125 4.42617L2.81953 5.93086L2.83008 7.43555L2.92852 7.44609C2.98125 7.45312 3.13945 7.43555 3.28008 7.40391C3.41719 7.37578 3.67383 7.34414 3.84609 7.33008C4.01836 7.31953 4.18008 7.29492 4.20117 7.27734C4.22578 7.25625 4.25391 7.17539 4.26797 7.09805C4.29961 6.90117 4.40508 6.7043 4.57031 6.53906C4.89023 6.21914 5.1293 6.17695 6.51797 6.19453C7.53047 6.20508 7.54102 6.20859 7.73438 6.29648C8.09297 6.46172 8.28633 6.70781 8.40937 7.13672L8.45508 7.29492H8.99648C9.60117 7.29492 9.55195 7.31953 9.64687 6.99609C9.71719 6.75 9.86836 6.53906 10.0793 6.40195C10.3641 6.21211 10.4273 6.20508 11.707 6.20508H12.8848L13.0781 6.29648C13.4367 6.46523 13.6301 6.70781 13.7531 7.13672L13.7988 7.29492L14.0801 7.32305C14.2348 7.33711 14.4738 7.36523 14.6074 7.38984C14.7445 7.41094 14.9238 7.43203 15.0117 7.43203L15.1699 7.43555L15.1805 5.93086L15.1875 4.42617L15.0996 4.15547C14.8992 3.5543 14.4703 3.11836 13.8727 2.91094L13.5879 2.8125H9H4.41211L4.12734 2.91094Z"/>
    <path d="M3.23438 7.94531C2.46094 8.1457 1.78242 8.69063 1.42383 9.4043C1.12149 10.0055 1.125 9.95977 1.125 12.5473C1.125 14.7516 1.12852 14.8219 1.19531 14.9344C1.30078 15.1031 1.45899 15.1875 1.6875 15.1875C2.05313 15.1875 2.25 14.9801 2.25 14.5969C2.25 14.3051 2.3168 14.1539 2.46094 14.1012C2.54531 14.073 4.29961 14.0625 9.00703 14.0625C14.4211 14.0625 15.4547 14.0695 15.5531 14.1117C15.6973 14.1715 15.75 14.3051 15.75 14.6039C15.75 14.9801 15.9504 15.1875 16.3125 15.1875C16.541 15.1875 16.6992 15.1031 16.8047 14.9344C16.8715 14.8219 16.875 14.7516 16.875 12.5473C16.875 9.96328 16.8785 10.0055 16.5762 9.4043C16.2176 8.68359 15.5391 8.14219 14.7516 7.94531C14.4809 7.875 14.3508 7.875 8.98594 7.87852C3.68789 7.87852 3.4875 7.88203 3.23438 7.94531Z"/>
  </symbol>
  <symbol id="kitchen" viewBox="0 0 18 18">
    <path d="M4.71797 1.19888C4.50352 1.33599 4.46484 1.4731 4.46484 2.07427V2.60513L3.68086 3.66685C3.24844 4.25044 2.87578 4.76372 2.85469 4.80591C2.83008 4.8481 2.8125 4.96763 2.8125 5.0731C2.8125 5.2981 2.90391 5.45982 3.09375 5.5688C3.21328 5.64263 3.26602 5.64263 6.08203 5.65318C7.65703 5.66021 9.01406 5.65318 9.09844 5.64263C9.43242 5.59341 9.66445 5.21724 9.55195 4.90083C9.52734 4.82349 9.14766 4.27505 8.7082 3.68091L7.91016 2.60161V2.07427C7.91016 1.4731 7.86797 1.33247 7.65352 1.19888C7.5375 1.12857 7.4918 1.12505 6.18398 1.12505C4.87266 1.12505 4.83047 1.12857 4.71797 1.19888Z"/>
    <path d="M13.6405 5.63906C13.0674 5.80078 12.6139 6.26133 12.4627 6.84492C12.3045 7.44609 12.4838 7.80469 12.9549 7.83281C13.1307 7.84336 13.187 7.83281 13.2854 7.7625C13.4471 7.65703 13.5315 7.50586 13.5702 7.25977C13.6088 7.0207 13.6721 6.91172 13.8268 6.82031C14.0659 6.67266 14.3788 6.76758 14.5334 7.03125C14.6002 7.14375 14.6073 7.22109 14.6178 8.05781L14.6284 8.96484H12.6631H10.6944L10.6803 8.58516C10.6698 8.15273 10.6276 8.06484 10.385 7.94531C10.2444 7.875 10.1846 7.875 5.9061 7.875C1.62758 7.875 1.56782 7.875 1.42719 7.94531C1.34633 7.98398 1.25141 8.06133 1.21274 8.11406C1.14243 8.20898 1.14243 8.27227 1.13188 12.3574C1.12485 16.4496 1.12485 16.5059 1.19516 16.6219C1.23383 16.6852 1.31469 16.766 1.37797 16.8047C1.49399 16.875 1.57133 16.875 8.99633 16.875H16.4987L16.6147 16.8012C16.678 16.7625 16.7624 16.6781 16.801 16.6148C16.8749 16.4988 16.8749 16.4672 16.8749 12.9305V9.36211L16.794 9.24609C16.6604 9.04219 16.5198 8.98594 16.112 8.97187L15.7498 8.95781V7.96289C15.7498 6.88008 15.7288 6.73242 15.5284 6.39141C15.4194 6.20508 15.1206 5.9168 14.9061 5.79023C14.5862 5.60391 14.0166 5.53711 13.6405 5.63906ZM9.56235 9.54492V10.0547H5.9061H2.24985V9.54492V9.03516H5.9061H9.56235V9.54492ZM14.3049 11.3555C14.4877 11.4469 14.5897 11.6191 14.5897 11.8301C14.5897 12.048 14.4913 12.2098 14.2944 12.3012C14.1573 12.3715 14.0834 12.375 13.2186 12.375C12.3538 12.375 12.2799 12.3715 12.1428 12.3012C11.7526 12.1148 11.742 11.5559 12.1217 11.3555C12.2413 11.2957 12.3327 11.2887 13.2116 11.2852C14.0975 11.2852 14.1819 11.2887 14.3049 11.3555Z"/>
  </symbol>
  <symbol id="bath" viewBox="0 0 18 18">
    <path d="M3.88842 2.09175C3.21342 2.27808 2.65795 2.84058 2.47865 3.51558C2.43647 3.66675 2.42592 3.97261 2.42592 4.89722V6.08901L2.24662 5.9273C2.0392 5.74097 1.96537 5.71636 1.71928 5.73745C1.42397 5.76558 1.24818 5.99409 1.27279 6.31401C1.30092 6.63042 1.17084 6.60933 2.95678 6.60933H4.53529L4.58803 6.52495C4.6724 6.39839 4.66186 6.11011 4.57397 5.96597C4.46498 5.79019 4.30678 5.71636 4.06772 5.73745C3.89545 5.75151 3.84272 5.77612 3.69154 5.90269L3.51576 6.05034V4.93237C3.51576 3.92691 3.52279 3.80034 3.58256 3.67378C3.73725 3.32925 4.04311 3.12886 4.40873 3.12886C4.91146 3.13237 5.27006 3.47339 5.32982 4.00425C5.37201 4.38745 5.58646 4.58784 5.91693 4.55972C6.24389 4.53159 6.41967 4.30659 6.40912 3.93042C6.39857 3.43823 6.19467 2.98823 5.82201 2.61909C5.40365 2.20425 4.98529 2.0355 4.39115 2.04253C4.20834 2.04253 3.98334 2.06714 3.88842 2.09175Z"/>
    <path d="M0.232031 7.73086C0.0703125 7.83984 0 7.97344 0 8.19141C0 8.52188 0.193359 8.71875 0.516797 8.71875H0.699609L0.752344 8.90156C0.780469 9.00352 0.977344 9.74531 1.1918 10.5469C1.40273 11.3484 1.61367 12.1078 1.66289 12.2344C2.00742 13.1484 2.67188 13.9043 3.52266 14.3543C3.65273 14.4211 3.7793 14.4844 3.80391 14.4914C3.83203 14.502 3.7582 14.6145 3.61758 14.7867C3.26602 15.2086 3.25898 15.2262 3.27656 15.4723C3.29062 15.6727 3.30469 15.7008 3.43828 15.8238C3.57187 15.9504 3.6 15.9609 3.78281 15.9609C3.90234 15.9609 4.01836 15.9398 4.07812 15.9012C4.13438 15.8695 4.36641 15.6094 4.59492 15.3246L5.00977 14.8043H9L12.9902 14.8008L13.3594 15.2613C13.5633 15.5145 13.7883 15.7746 13.8621 15.8414C13.9781 15.9469 14.0133 15.9609 14.1961 15.9609C14.4984 15.9609 14.6812 15.8168 14.7305 15.5285C14.7727 15.3141 14.7129 15.184 14.4316 14.8324L14.168 14.5125L14.4281 14.3824C15.1453 14.0203 15.7887 13.377 16.1543 12.6562C16.3582 12.252 16.3758 12.1922 17.2652 8.84883C17.3004 8.71875 17.3004 8.71875 17.4832 8.71875C17.8066 8.71875 18 8.52188 18 8.19141C18 7.97344 17.9297 7.83984 17.768 7.73086C17.6695 7.66758 17.4305 7.66406 9 7.66406C0.569531 7.66406 0.330469 7.66758 0.232031 7.73086Z"/>
  </symbol>
  <symbol id="loggia" viewBox="0 0 18 18">
    <path d="M7.83984 1.16367C6.58828 1.48711 5.52305 2.28867 4.8832 3.39258C4.63359 3.82148 4.32422 4.66875 4.32422 4.92891C4.32422 4.98867 4.41562 4.99219 6.31055 4.99219H8.29688V3.04102V1.08984L8.20195 1.09336C8.1457 1.09336 7.98398 1.125 7.83984 1.16367Z"/>
    <path d="M9.70312 3.04102V4.99219H11.6895C13.5844 4.99219 13.6758 4.98867 13.6758 4.92891C13.6758 4.66875 13.3664 3.82148 13.1168 3.39258C12.5824 2.475 11.6965 1.71563 10.7156 1.33594C10.4801 1.24453 9.89648 1.08984 9.7875 1.08984H9.70312V3.04102Z"/>
    <path d="M4.25391 8.0332V9.63281H6.27539H8.29688V8.0332V6.43359H6.27539H4.25391V8.0332Z"/>
    <path d="M9.70312 8.0332V9.63281H11.7246H13.7461V8.0332V6.43359H11.7246H9.70312V8.0332Z"/>
    <path d="M0.54114 11.0777C0.368875 11.1164 0.136844 11.3063 0.0559842 11.475C-0.0143283 11.6227 -0.0178439 11.9496 0.048953 12.1043C0.154422 12.3609 0.397 12.5156 0.727469 12.5438L0.948953 12.5613V14.4105C0.948953 15.6059 0.963016 16.309 0.987625 16.3934C1.03333 16.5551 1.22317 16.7766 1.38489 16.8539C1.49387 16.9066 2.197 16.9102 8.99973 16.9102C15.8025 16.9102 16.5056 16.9066 16.6146 16.8539C16.7763 16.7766 16.9661 16.5551 17.0118 16.3934C17.0365 16.309 17.0505 15.6059 17.0505 14.4105V12.5613L17.272 12.5438C17.6025 12.5156 17.845 12.3609 17.9505 12.1043C18.0173 11.9496 18.0138 11.6227 17.9435 11.475C17.8556 11.2922 17.6341 11.1199 17.4302 11.0777C17.2087 11.0285 0.752078 11.032 0.54114 11.0777ZM3.86692 13.9922V15.4336H3.1638H2.46067V13.9922V12.5508H3.1638H3.86692V13.9922ZM6.78489 13.9922V15.4336H6.08177H5.37864V13.9922V12.5508H6.08177H6.78489V13.9922ZM9.70286 13.9922V15.4336H8.99973H8.29661V13.9922V12.5508H8.99973H9.70286V13.9922ZM12.6208 13.9922V15.4336H11.9177H11.2146V13.9922V12.5508H11.9177H12.6208V13.9922ZM15.5388 13.9922V15.4336H14.8357H14.1325V13.9922V12.5508H14.8357H15.5388V13.9922Z"/>
  </symbol>
  <symbol id="phone" viewBox="0 0 18 18">
    <path d="M7.24199 2.36072C4.25371 2.51659 2.26738 3.17824 1.16348 4.38067C0.449805 5.16002 0.0876953 6.07616 0.0138672 7.30403L-0.0107422 7.70166L1.84902 7.6953L3.70879 7.68576L3.74746 7.39628C3.8459 6.68055 4.08144 6.10479 4.44355 5.69125C4.85488 5.22364 5.56504 4.93735 6.55644 4.83874C6.81309 4.81329 7.5373 4.80057 8.73262 4.80375C11.5838 4.81011 12.1885 4.86737 12.9162 5.2141C13.4893 5.48449 13.8654 5.95528 14.0799 6.66465C14.1502 6.90004 14.2662 7.51716 14.2732 7.67621C14.2732 7.69212 15.1135 7.70166 16.1365 7.70166H17.9998V7.49807C17.9998 7.19906 17.9365 6.68055 17.8557 6.33382C17.6166 5.27772 17.0436 4.40612 16.1893 3.80491C14.9623 2.93967 13.2572 2.49114 10.6732 2.35754C9.96309 2.32255 7.95566 2.32255 7.24199 2.36072Z"/>
    <path d="M5.49844 6.55011C5.14336 6.5851 5.13281 6.60419 5.13281 7.17359V7.65393L4.95 7.84479C3.94453 8.88817 1.72969 11.6111 1.38867 12.2219L1.30078 12.3746V13.8951C1.30078 15.3552 1.3043 15.4188 1.37109 15.5206C1.40977 15.5779 1.49062 15.651 1.55391 15.686C1.66992 15.7496 1.74727 15.7496 8.81719 15.7496C16.7801 15.7496 16.1227 15.7687 16.2844 15.5301C16.3652 15.4156 16.3652 15.4124 16.3758 13.9142L16.3863 12.4127L16.2914 12.2441C15.9574 11.6461 13.8199 9.01223 12.8074 7.95295L12.5156 7.64439V7.17359C12.5156 6.91275 12.5016 6.68372 12.4875 6.66463C12.4312 6.58829 12.3012 6.55966 11.9004 6.54057C11.3906 6.51512 10.8809 6.55966 10.7965 6.63282C10.7508 6.67417 10.7367 6.76642 10.7297 7.08134L10.7156 7.47897H8.8207H6.9293L6.91875 7.07816C6.90469 6.55011 6.92227 6.56284 6.22266 6.54375C5.94141 6.53739 5.61445 6.54057 5.49844 6.55011ZM6.96094 8.80546C7.08047 8.86908 7.20703 9.06312 7.20703 9.18082C7.20703 9.29852 7.08047 9.49256 6.96094 9.55618C6.82383 9.62935 6.5918 9.62616 6.45117 9.54664C6.32461 9.47666 6.22266 9.31442 6.22266 9.18082C6.22266 9.0663 6.3457 8.87226 6.46172 8.80546C6.58477 8.73866 6.83437 8.73548 6.96094 8.80546ZM9.11953 8.84681C9.36562 9.04086 9.36562 9.31761 9.12305 9.51165C8.81719 9.75341 8.33203 9.553 8.33203 9.18718C8.33203 8.92952 8.53594 8.75138 8.83125 8.75138C8.96484 8.75138 9.02109 8.77047 9.11953 8.84681ZM11.148 8.7991C11.4539 8.94543 11.4715 9.35896 11.1797 9.54664C11.0602 9.62298 10.8141 9.63889 10.691 9.58163C10.5609 9.51801 10.4379 9.33669 10.4344 9.20309C10.4309 8.86272 10.8141 8.64641 11.148 8.7991ZM6.89062 10.361C7.24219 10.4882 7.30547 10.8604 7.01367 11.1053C6.93633 11.1721 6.88359 11.1849 6.71484 11.1849C6.54609 11.1849 6.49336 11.1721 6.41602 11.1053C6.13125 10.8636 6.18047 10.5105 6.52148 10.3705C6.69375 10.2974 6.71484 10.2974 6.89062 10.361ZM9.08086 10.3992C9.21445 10.4723 9.33047 10.6918 9.29883 10.8254C9.20391 11.2358 8.65195 11.3376 8.39883 10.9908C8.26875 10.8127 8.33555 10.5391 8.53242 10.4119C8.70469 10.3005 8.88398 10.2974 9.08086 10.3992ZM11.0426 10.3419C11.4363 10.4405 11.5172 10.9463 11.1691 11.1372C10.8387 11.3217 10.4414 11.1085 10.4414 10.7491C10.4414 10.5296 10.6242 10.3546 10.8984 10.3133C10.909 10.3101 10.9723 10.326 11.0426 10.3419ZM6.97852 11.9769C7.27383 12.1519 7.2668 12.5368 6.96445 12.7181C6.64453 12.9122 6.19453 12.6672 6.2332 12.3173C6.27187 11.9833 6.67617 11.7988 6.97852 11.9769ZM9.03867 11.9674C9.21797 12.0501 9.33047 12.2537 9.29531 12.4286C9.26367 12.5813 9.08437 12.7499 8.91914 12.7754C8.73984 12.8072 8.63086 12.7754 8.4832 12.6545C8.23711 12.4509 8.30391 12.0978 8.61328 11.9579C8.77148 11.8847 8.86641 11.8847 9.03867 11.9674ZM11.0848 11.9451C11.2711 12.0151 11.3906 12.1678 11.3906 12.3364C11.3906 12.6799 11.0391 12.8835 10.698 12.7372C10.4344 12.6259 10.3535 12.2887 10.5363 12.0883C10.6312 11.9865 10.7965 11.9038 10.909 11.9006C10.9441 11.9006 11.0215 11.9197 11.0848 11.9451Z"/>
    <path d="M0 8.24879C0.00351562 8.62097 0.165234 8.9009 0.457031 9.04722C0.720703 9.18083 0.952734 9.2031 1.98633 9.19037C3.01289 9.17765 3.09375 9.16492 3.36797 8.9836C3.56133 8.85318 3.72656 8.4651 3.72656 8.14063V8.05156H1.86328H0V8.24879Z"/>
    <path d="M14.2734 8.20109C14.2734 8.28379 14.3016 8.43648 14.3332 8.54146C14.407 8.78003 14.6039 8.9709 14.857 9.05042C15.293 9.19039 17.0297 9.18084 17.4445 9.0377C17.7961 8.92 18 8.6178 18 8.22017V8.05158H16.1367H14.2734V8.20109Z"/>
  </symbol>
  <symbol id="tv" viewBox="0 0 18 18">
    <path d="M0.295312 2.57495C0.256641 2.59038 0.175781 2.65212 0.1125 2.71386L0 2.82807V7.88133C0 12.9006 0 12.9346 0.0703125 13.0365C0.1125 13.0982 0.203906 13.163 0.291797 13.197C0.435937 13.2525 0.464062 13.2525 1.49414 13.197C4.63359 13.0241 6.4125 12.9716 9 12.9716C11.6016 12.9716 13.384 13.0241 16.5059 13.197C17.5359 13.2525 17.5641 13.2525 17.7082 13.197C17.7961 13.163 17.8875 13.0982 17.9297 13.0365C18 12.9346 18 12.9006 18 7.87824V2.8219L17.8664 2.69534C17.6871 2.52865 17.6555 2.52556 16.1895 2.60582C13.3102 2.76016 12.3117 2.79412 9.86133 2.81573C7.2457 2.83734 5.38242 2.79412 2.42578 2.63669C0.84375 2.55643 0.383203 2.54099 0.295312 2.57495Z"/>
    <path d="M7.62187 13.8669L7.17188 13.8792V14.2774C7.17188 14.6293 7.16484 14.6756 7.11211 14.6911C7.07695 14.7003 6.21211 14.9041 5.18555 15.1418C4.01836 15.4165 3.28008 15.6048 3.20977 15.6449C3.06562 15.7283 2.98828 15.8672 2.98828 16.0431C2.98828 16.2963 3.22031 16.5 3.50156 16.5C3.58242 16.5 4.53516 16.2901 5.61797 16.037L7.58672 15.5739H9.00352H10.4238L12.3891 16.037C13.4684 16.2932 14.4176 16.5 14.4984 16.5C14.7797 16.5 15.0117 16.2932 15.0117 16.0431C15.0117 15.8672 14.9344 15.7283 14.7902 15.6449C14.6988 15.5925 13.0922 15.1973 10.9617 14.7065L10.8281 14.6756V14.2805V13.8854L10.1707 13.8669C9.54141 13.8453 8.59219 13.8484 7.62187 13.8669Z"/>
  </symbol>
  <symbol id="conditioner" viewBox="0 0 18 18">
    <path d="M1.23751 2.36505C0.706646 2.48472 0.249615 2.96338 0.0668023 3.58647C0.00352103 3.8093 5.40657e-06 3.95372 5.40657e-06 7.10218C5.40657e-06 10.5931 -0.00351022 10.5354 0.168755 10.9274C0.270709 11.1584 0.499224 11.4514 0.70313 11.6041C0.991412 11.8187 1.24805 11.8929 1.72618 11.8929C1.95469 11.8929 2.14454 11.8847 2.14454 11.8764C2.14454 11.8682 2.32032 10.9562 2.53126 9.84624C2.81602 8.35661 2.93907 7.79954 2.99883 7.69638C3.16055 7.41991 2.74922 7.43642 9.00001 7.43642C15.2508 7.43642 14.8395 7.41991 15.0012 7.69638C15.0609 7.79954 15.184 8.35661 15.4688 9.84624C15.6797 10.9562 15.8555 11.8682 15.8555 11.8764C15.8555 11.8847 16.0453 11.8929 16.2738 11.8929C16.752 11.8929 17.0086 11.8187 17.2969 11.6041C17.5008 11.4514 17.7293 11.1584 17.8313 10.9274C18.0035 10.5354 18 10.5931 18 7.10218C18 3.95372 17.9965 3.8093 17.9332 3.58647C17.7434 2.94688 17.2934 2.48472 16.7344 2.36093C16.5023 2.31141 1.45899 2.31141 1.23751 2.36505ZM12.027 5.50938C12.2555 5.68682 12.3293 6.02106 12.1992 6.27277C12.0586 6.54098 11.9637 6.574 11.3836 6.56162C10.8879 6.54924 10.8633 6.54511 10.7754 6.44608C10.5012 6.14485 10.5293 5.7157 10.8352 5.497C10.9371 5.42685 11.0145 5.41447 11.4293 5.41447C11.8688 5.41447 11.918 5.42273 12.027 5.50938ZM14.4527 5.50938C14.7691 5.75697 14.7621 6.25626 14.4387 6.49147C14.3367 6.56574 14.2734 6.56987 13.8094 6.56162L13.2891 6.54924L13.1625 6.39656C12.927 6.12009 12.9727 5.70332 13.2609 5.497C13.3629 5.42685 13.4402 5.41447 13.8551 5.41447C14.2945 5.41447 14.3438 5.42273 14.4527 5.50938Z"/>
    <path d="M3.77956 8.68259C3.77253 8.71148 3.63542 9.41297 3.48074 10.2424C3.32253 11.0718 3.18542 11.7815 3.17839 11.8187C3.16081 11.8888 3.45613 11.8929 8.99675 11.8929H14.8362L14.8151 11.7774C14.8046 11.7155 14.6639 10.9893 14.5057 10.1598L14.2175 8.65371L9.00378 8.64133C4.85534 8.63308 3.79363 8.64133 3.77956 8.68259Z"/>
    <path d="M6.15936 12.7471C6.00116 12.8379 5.90975 13.0071 5.87108 13.2629C5.85702 13.3826 5.7867 13.6137 5.71639 13.7705C5.45975 14.3647 5.46327 14.963 5.73397 15.5985C5.90272 15.9987 5.90272 16.0482 5.71288 16.4939C5.50897 16.9684 5.46678 17.4182 5.60038 17.6864C5.86053 18.2187 6.51795 18.0372 6.59178 17.4141C6.60584 17.2944 6.66913 17.0757 6.73241 16.9272C6.88709 16.5723 6.92577 16.3907 6.92577 16.0152C6.92577 15.6562 6.85897 15.3468 6.71131 15.0455C6.56717 14.7484 6.57772 14.5875 6.75702 14.1707C6.89061 13.8654 6.90467 13.7952 6.91874 13.4692C6.92928 13.1432 6.92577 13.0979 6.84842 12.9658C6.69725 12.6976 6.40194 12.6068 6.15936 12.7471Z"/>
    <path d="M8.92969 12.7472C8.76797 12.8462 8.6625 13.0402 8.63437 13.2877C8.62383 13.3991 8.56406 13.5972 8.5043 13.7251C8.36016 14.0346 8.29688 14.3235 8.29688 14.6783C8.29688 15.0085 8.34961 15.2395 8.50781 15.6068C8.57109 15.7512 8.62031 15.9286 8.62383 16.0029C8.62734 16.0813 8.56406 16.2918 8.47266 16.5187C8.34258 16.8406 8.31797 16.9437 8.30742 17.212C8.29688 17.4595 8.30742 17.5544 8.35664 17.6659C8.44453 17.8639 8.58164 17.9671 8.77852 17.9877C9.08789 18.0207 9.31992 17.7897 9.36211 17.4059C9.37617 17.3027 9.43594 17.1005 9.4957 16.9602C9.64336 16.6136 9.70312 16.3495 9.70312 15.9988C9.70312 15.6646 9.65039 15.4376 9.49219 15.0662C9.34453 14.7279 9.34805 14.5834 9.50273 14.2244C9.56953 14.0635 9.64336 13.8613 9.66445 13.7705C9.71719 13.5436 9.71367 13.197 9.65391 13.0319C9.54844 12.7389 9.18281 12.5945 8.92969 12.7472Z"/>
    <path d="M11.724 12.7348C11.5483 12.8255 11.4639 12.9741 11.4111 13.2712C11.383 13.4197 11.3268 13.6137 11.2881 13.6921C10.9928 14.2739 10.9998 15.0579 11.2986 15.6604C11.4252 15.9121 11.4217 16.1349 11.2846 16.4114C11.0596 16.8735 10.9998 17.4471 11.1545 17.7153C11.4393 18.2146 12.1283 17.9877 12.1283 17.3935C12.1283 17.3316 12.1916 17.1294 12.269 16.9437C12.5432 16.2835 12.5432 15.7347 12.2654 15.0786C12.0967 14.6865 12.0967 14.6205 12.283 14.2038C12.4799 13.7622 12.5326 13.2712 12.4061 13.0071C12.269 12.7265 11.9701 12.6068 11.724 12.7348Z"/>
  </symbol>
  <symbol id="teapot" viewBox="0 0 18 18">
    <path d="M6.9792 0.565991C6.45185 0.643335 5.84365 0.882398 5.36201 1.20583C5.24599 1.28318 5.02451 1.47654 4.86982 1.63123C4.5956 1.90896 4.29678 2.30271 4.33193 2.33787C4.33896 2.34841 5.8542 2.35193 7.69638 2.34841L11.0433 2.33787L10.871 2.09177C10.653 1.77888 10.1995 1.34646 9.86904 1.13201C9.41201 0.836694 8.8917 0.646851 8.31514 0.562476C8.02334 0.523804 7.27803 0.523804 6.9792 0.565991Z"/>
    <path d="M13.1844 2.40469C12.4391 2.58398 11.8344 2.7457 11.8379 2.76328C11.8414 2.78438 11.9152 2.92148 12.0067 3.07266C13.0051 4.76367 13.7399 7.3125 14.0774 10.248C14.2039 11.3414 14.2988 13.0043 14.3199 14.4422L14.327 14.9766L14.7067 14.502C16.8652 11.8195 17.7442 8.91914 17.259 6.08555C17.0797 5.02383 16.6684 3.84258 16.1551 2.91094C15.909 2.46445 15.6559 2.24648 15.2621 2.13047C14.893 2.02148 14.6539 2.05664 13.1844 2.40469ZM14.8192 3.7793C15.009 3.88828 15.0723 3.97969 15.241 4.35938C15.6981 5.40352 15.9477 6.63047 15.9195 7.66758C15.909 8.09297 15.9055 8.11406 15.807 8.24063C15.5328 8.59922 14.9668 8.58516 14.7524 8.21602C14.7031 8.13164 14.6328 7.90313 14.5906 7.68164C14.4078 6.75703 14.1547 5.81836 13.8664 4.98867C13.7293 4.59844 13.7082 4.49297 13.7188 4.33477C13.7399 4.07812 13.8805 3.88125 14.1336 3.75117C14.3692 3.63164 14.5836 3.63867 14.8192 3.7793Z"/>
    <path d="M3.76875 3.31172C2.34492 5.75859 1.54688 9.70664 1.54688 14.3508V15.0469H7.66406H13.7812V14.0344C13.7812 9.53438 12.9516 5.60391 11.4891 3.17109L11.3168 2.88281H7.66758H4.02187L3.76875 3.31172ZM9.85078 4.52812C10.1391 4.66875 10.4027 4.94648 10.5188 5.23125L10.5996 5.43164V9.28125V13.1309L10.4871 13.3664C10.2094 13.957 9.57305 14.2734 8.97187 14.1188C8.39883 13.9746 8.02266 13.5422 7.9418 12.9445C7.9207 12.7687 7.91016 11.4012 7.91719 9.08789C7.92773 5.81133 7.93477 5.48789 7.9875 5.32617C8.12109 4.93594 8.48672 4.56328 8.85938 4.44727C8.95781 4.41563 9.13008 4.39805 9.31641 4.40508C9.57656 4.41211 9.65039 4.42969 9.85078 4.52812Z"/>
    <path d="M9.01133 4.93593C8.70898 5.03437 8.50156 5.27343 8.45234 5.57929L8.42773 5.73046H8.71602C9.01484 5.73046 9.18359 5.78319 9.22578 5.88866C9.27148 6.00819 9.24336 6.11366 9.15547 6.18398C9.07461 6.24726 9.01133 6.2578 8.75117 6.2578H8.43828V6.53905V6.8203H8.71953C9.01484 6.8203 9.18359 6.87304 9.22578 6.97851C9.27148 7.09804 9.24336 7.20351 9.15547 7.27382C9.07461 7.3371 9.01133 7.34765 8.75117 7.34765H8.43828V7.6289V7.91015H8.69844C8.99023 7.91015 9.1625 7.95937 9.21172 8.05077C9.275 8.16679 9.25039 8.28983 9.15547 8.36366C9.07461 8.42694 9.01133 8.43749 8.75117 8.43749H8.43828V8.71874V8.99999H8.69844C8.99023 8.99999 9.1625 9.04921 9.21172 9.14062C9.275 9.25663 9.25039 9.37968 9.15547 9.45351C9.07461 9.51679 9.01133 9.52733 8.75117 9.52733H8.43828V9.80858V10.0898H8.69844C8.99023 10.0898 9.1625 10.1391 9.21172 10.2305C9.275 10.3465 9.25039 10.4695 9.15547 10.5434C9.07461 10.6066 9.01133 10.6172 8.75117 10.6172H8.43828V10.916V11.2148H8.77227C9.06055 11.2148 9.1168 11.2254 9.17656 11.2851C9.27148 11.3801 9.26797 11.5348 9.16602 11.6297C9.0957 11.6965 9.04297 11.707 8.76172 11.707H8.43828V12.0059V12.3047H8.77227C9.06055 12.3047 9.1168 12.3152 9.17656 12.375C9.27148 12.4699 9.26797 12.6246 9.16602 12.7195C9.0957 12.7863 9.04297 12.7969 8.76172 12.7969H8.43828V12.8918C8.43828 13.0394 8.58945 13.3312 8.72305 13.4437C8.90938 13.6019 9.05703 13.6476 9.3207 13.6336C9.63711 13.616 9.84805 13.4859 9.99922 13.2187L10.1082 13.0254V9.29882C10.1082 5.23827 10.1188 5.42109 9.9043 5.18202C9.69336 4.93944 9.31719 4.83398 9.01133 4.93593Z"/>
    <path d="M1.96906 3.5543C1.45227 3.60703 0.580393 3.80742 0.605002 3.86719C0.633127 3.93047 2.06047 6.01172 2.07453 6.01172C2.08508 6.01172 2.15539 5.82539 2.22922 5.59688C2.40149 5.06602 2.71438 4.275 2.88313 3.9375C3.11164 3.48047 3.12922 3.51563 2.66516 3.51914C2.44719 3.52266 2.1343 3.54023 1.96906 3.5543Z"/>
    <path d="M1.58203 16.5234V17.4727H7.66406H13.7461V16.5234V15.5742H7.66406H1.58203V16.5234Z"/>
  </symbol>
  <symbol id="microwave" viewBox="0 0 18 18">
    <path d="M0.854664 2.39067C0.629664 2.43638 0.446851 2.54536 0.27107 2.74224C-0.020727 3.06919 0.000366803 2.58052 0.000366803 8.63091C0.000366803 14.6532 -0.020727 14.1926 0.257007 14.5055C0.344898 14.6075 0.482007 14.7094 0.615601 14.7692C0.80896 14.8641 0.861695 14.8711 1.2238 14.8711H1.61755V15.2157C1.61755 15.4372 1.63162 15.5743 1.65974 15.6024C1.71951 15.6622 4.18748 15.6622 4.24724 15.6024C4.27537 15.5743 4.28943 15.4372 4.28943 15.2157V14.8711H9.00037H13.7113V15.2227C13.7113 15.5321 13.7183 15.5743 13.7781 15.6094C13.8238 15.6305 14.2984 15.6446 15.0789 15.6446H16.3094L16.3621 15.5672C16.4043 15.511 16.4183 15.402 16.4183 15.1805V14.8711H16.7804C17.0195 14.8711 17.1988 14.8536 17.3078 14.8149C17.5258 14.7411 17.7965 14.4915 17.909 14.2665L18.0004 14.0836V8.63442C18.0004 3.33286 17.9969 3.17817 17.9301 3.03403C17.8316 2.81606 17.5715 2.55239 17.357 2.45747L17.1742 2.37309L9.08826 2.36958C4.64099 2.36606 0.935523 2.37661 0.854664 2.39067ZM17.0582 3.32934C17.1179 3.38208 17.1215 3.59302 17.1215 8.62036C17.1215 13.8059 17.1215 13.8516 17.0511 13.9219C16.9808 13.9922 16.9351 13.9922 9.00037 13.9922C1.0656 13.9922 1.0199 13.9922 0.949585 13.9219C0.879273 13.8516 0.879273 13.8059 0.879273 8.63794C0.879273 3.97622 0.886304 3.41724 0.935523 3.34692L0.988257 3.26958H8.98982C16.3867 3.26958 16.9984 3.27309 17.0582 3.32934Z"/>
    <path d="M2.05664 4.1625C1.92656 4.21875 1.81055 4.34531 1.76133 4.47539C1.7332 4.54219 1.72266 5.84297 1.72266 8.62734V12.6773L1.80352 12.832C1.84922 12.9234 1.93008 13.0184 2.00391 13.0605C2.12695 13.1309 2.17266 13.1309 7.25977 13.1309C12.375 13.1309 12.3926 13.1309 12.5156 13.057C12.5824 13.0184 12.6738 12.934 12.716 12.8672L12.7969 12.7512V8.63438C12.7969 3.97266 12.8215 4.34883 12.5156 4.19063L12.3609 4.11328H7.25977C3.09023 4.1168 2.14453 4.12383 2.05664 4.1625ZM11.4434 6.03281C11.6016 6.09609 11.6016 6.11367 11.6016 8.64844V11.0461L11.4996 11.148C11.373 11.2711 11.3168 11.2746 11.1902 11.1656L11.0918 11.0812L11.0813 8.7293C11.0742 7.43906 11.0813 6.32812 11.0918 6.26484C11.127 6.06797 11.2746 5.96953 11.4434 6.03281Z"/>
    <path d="M14.0379 4.53516C13.957 4.5668 13.957 4.57031 13.957 5.37188C13.957 5.94844 13.9676 6.18398 13.9992 6.21563C14.0309 6.24727 14.3438 6.25781 15.1945 6.25781C16.2949 6.25781 16.3477 6.2543 16.3828 6.19102C16.4039 6.14883 16.418 5.81836 16.418 5.36484C16.418 4.62305 16.418 4.60898 16.3406 4.55625C16.2738 4.50703 16.1051 4.5 15.1875 4.50352C14.5969 4.50352 14.0801 4.51758 14.0379 4.53516Z"/>
    <path d="M14.1475 6.92583C14.0104 6.97856 13.9154 7.14028 13.9365 7.27387C13.9682 7.46723 14.0877 7.56216 14.3373 7.58325C14.7557 7.62192 14.9772 7.50942 14.9772 7.25981C14.9772 7.08755 14.9244 6.99966 14.7838 6.93989C14.6537 6.88716 14.267 6.87661 14.1475 6.92583Z"/>
    <path d="M15.5917 6.92234C15.3737 7.01726 15.3069 7.30905 15.4722 7.47077C15.6339 7.63601 16.1718 7.63249 16.3335 7.47077C16.4495 7.35476 16.4495 7.1403 16.3335 7.00671C16.2526 6.9153 16.228 6.90827 15.9538 6.90124C15.7956 6.89421 15.6304 6.90476 15.5917 6.92234Z"/>
    <path d="M14.1824 8.11062C14.0699 8.13171 13.9574 8.26882 13.9363 8.40945C13.9187 8.5114 13.9328 8.55359 14.0207 8.65202C14.1191 8.76452 14.1402 8.77155 14.3933 8.7821C14.8047 8.8032 14.9769 8.70124 14.9769 8.43757C14.9769 8.27234 14.8996 8.16687 14.7379 8.12116C14.6113 8.08601 14.33 8.08249 14.1824 8.11062Z"/>
    <path d="M15.6243 8.11055C15.3887 8.15625 15.3008 8.49727 15.4801 8.67305C15.5715 8.76797 15.5926 8.77148 15.9125 8.77148C16.236 8.77148 16.2536 8.76797 16.3344 8.67305C16.4329 8.55703 16.4469 8.35312 16.3661 8.23711C16.2782 8.11055 15.9231 8.05078 15.6243 8.11055Z"/>
    <path d="M14.0526 9.38679C13.8628 9.53445 13.9085 9.85788 14.1299 9.94929C14.1967 9.9739 14.3444 9.98796 14.5237 9.97741C14.7838 9.96687 14.8155 9.95632 14.8928 9.86843C15.0088 9.73132 15.0088 9.52038 14.8893 9.40437C14.812 9.32351 14.7768 9.31648 14.4745 9.31648C14.1932 9.31648 14.1299 9.32702 14.0526 9.38679Z"/>
    <path d="M15.4793 9.40085C15.402 9.46764 15.3809 9.51335 15.3809 9.63288C15.3809 9.75593 15.402 9.79811 15.5004 9.886C15.6164 9.98796 15.627 9.99147 15.9328 9.97741C16.2281 9.96686 16.2527 9.95983 16.3336 9.86843C16.4496 9.73132 16.4496 9.52038 16.3301 9.40436C16.2527 9.3235 16.2176 9.31647 15.9117 9.31647C15.6094 9.31647 15.5672 9.3235 15.4793 9.40085Z"/>
    <path d="M14.8717 10.6489C14.1088 10.8985 13.7889 11.781 14.2318 12.4173C14.7416 13.1485 15.8631 13.0536 16.2357 12.2415C16.4924 11.679 16.2217 10.9653 15.6521 10.7122C15.4728 10.6349 15.0264 10.5962 14.8717 10.6489Z"/>
  </symbol>
  <symbol id="dryer" viewBox="0 0 18 18">
    <path d="M4.72852 0.21088C3.14297 0.379631 1.74023 1.23744 0.861328 2.56635C0.604688 2.95658 0.534375 3.09369 0.365625 3.50502C0.1125 4.13432 0 4.74955 0 5.49135C0.00351562 6.51791 0.232031 7.3476 0.766406 8.24408C1.14609 8.88393 1.81406 9.55893 2.48203 9.97729C3.66328 10.7191 5.20664 10.9581 6.5918 10.6136C6.74648 10.5749 8.44102 10.1214 10.3535 9.61166C12.2695 9.09838 13.8937 8.66596 13.9676 8.64487L14.0977 8.60971L14.0906 5.47729L14.0801 2.34486L10.3711 1.34994C8.33203 0.801506 6.49687 0.319865 6.29297 0.281193C5.87461 0.196818 5.15742 0.165177 4.72852 0.21088ZM6.09258 2.68588C6.44766 2.79135 6.60938 2.86869 6.9082 3.06908C8.11758 3.89174 8.53242 5.45619 7.88906 6.76049C7.51289 7.52338 6.83086 8.07533 5.99414 8.30033C5.62148 8.39877 4.97813 8.40932 4.62305 8.31791C3.53672 8.04018 2.68945 7.18588 2.44336 6.11713C2.35547 5.74799 2.3625 5.12924 2.45391 4.78119C2.6332 4.10619 3.03398 3.51908 3.60352 3.10776C3.93047 2.86869 4.4543 2.65424 4.86914 2.59096C4.92891 2.58041 5.15742 2.5769 5.37891 2.58393C5.68828 2.59096 5.85703 2.61557 6.09258 2.68588Z"/>
    <path d="M5.02757 3.7125C4.63734 3.78984 4.29984 3.96211 4.05023 4.21172C3.07289 5.18906 3.48421 6.79218 4.81312 7.18593C5.08382 7.26679 5.52679 7.25976 5.81156 7.17187C6.57796 6.93633 7.11937 6.14883 7.05257 5.36133C6.99281 4.61953 6.49007 3.98672 5.80101 3.78281C5.59711 3.72304 5.17875 3.68437 5.02757 3.7125Z"/>
    <path d="M16.2422 1.79293L15.2754 2.21129L15.2648 5.47379L15.2578 8.73629L16.2738 9.17223C17.2301 9.58004 17.3039 9.60465 17.4727 9.59059C17.673 9.56949 17.7996 9.49215 17.9227 9.31637L18 9.20035L17.993 5.4527C17.9824 1.76832 17.9824 1.70504 17.9121 1.61012C17.7961 1.45543 17.6098 1.37106 17.3988 1.37457C17.2371 1.37457 17.0648 1.43785 16.2422 1.79293Z"/>
    <path d="M9.86843 10.9124C9.56609 10.9968 9.30945 11.0707 9.2989 11.0777C9.29187 11.0882 9.30242 11.1621 9.32351 11.2429C9.37273 11.4433 9.28835 11.6718 9.11257 11.8054C9.00007 11.8933 8.9614 11.9003 8.67312 11.9003H8.35671L8.27234 11.6437C8.22312 11.5066 8.16687 11.3906 8.14226 11.3906C8.11765 11.3906 7.7696 11.4785 7.36179 11.5839C6.95749 11.6894 6.47585 11.8019 6.29304 11.8335C5.4071 11.9777 4.39109 11.9144 3.54031 11.6683C3.40671 11.6296 3.2907 11.6015 3.28367 11.6085C3.25203 11.6437 4.85164 16.3582 4.9782 16.5972C5.16453 16.9593 5.5864 17.3742 5.94148 17.55C6.79929 17.9718 7.74851 17.8875 8.49382 17.3214C9.1407 16.8328 9.48171 16.0136 9.38679 15.1769C9.3657 14.9941 9.25671 14.6144 9.05632 14.0097L8.76101 13.1132H8.90867C9.29539 13.1132 9.71726 12.9234 10.0372 12.6035C10.3817 12.2589 10.5469 11.8652 10.5469 11.38C10.5469 11.155 10.4942 10.8386 10.445 10.7894C10.4344 10.7753 10.1743 10.8316 9.86843 10.9124Z"/>
  </symbol>
  <symbol id="safe" viewBox="0 0 18 18">
    <path d="M8.56055 0.0703125C8.45156 0.112499 8.26875 0.242577 8.08594 0.404297C6.64805 1.67695 5.40352 2.20781 3.38906 2.40469C2.79141 2.46445 2.52422 2.5418 2.2043 2.75625C1.83516 3.00234 1.56445 3.37852 1.4168 3.85312C1.35703 4.04297 1.35352 4.22227 1.35352 6.11719C1.35352 8.33203 1.37109 8.62383 1.56445 9.8332C2.19727 13.7637 4.38047 16.3758 8.24062 17.8242C8.66602 17.9824 8.73984 18 9 18C9.26016 18 9.33398 17.9824 9.76641 17.8207C12.948 16.6289 14.9871 14.6285 15.9645 11.7492C16.2457 10.9266 16.4496 9.91758 16.5832 8.71875C16.6359 8.22656 16.6465 7.8293 16.6465 6.09961C16.6465 4.21875 16.643 4.04297 16.5832 3.85312C16.4355 3.37852 16.1648 3.00234 15.7957 2.75625C15.4758 2.5418 15.2086 2.46445 14.6109 2.40469C12.5965 2.20781 11.352 1.67695 9.91406 0.404297C9.71719 0.232031 9.55195 0.116014 9.42891 0.0703125C9.18633 -0.0210953 8.79961 -0.0210953 8.56055 0.0703125ZM9.87891 4.62305C11.6789 5.0168 12.9937 6.34219 13.384 8.15625C13.4297 8.3707 13.4473 8.60625 13.4473 9C13.4473 9.39375 13.4297 9.6293 13.384 9.84375C12.9902 11.6719 11.6719 12.9902 9.84375 13.384C9.42891 13.4719 8.57109 13.4719 8.15625 13.384C6.08203 12.9375 4.63711 11.257 4.5457 9.17227C4.46133 7.32656 5.58633 5.58281 7.3125 4.87617C7.64297 4.73906 7.93125 4.6582 8.33203 4.58437C8.67305 4.52461 9.52031 4.5457 9.87891 4.62305Z"/>
    <path d="M8.40246 5.60745C6.69386 5.91682 5.48449 7.42502 5.56535 9.14065C5.60754 9.99846 5.91691 10.7403 6.48644 11.3485C7.84699 12.8039 10.1532 12.8039 11.5138 11.3485C12.7478 10.0301 12.7478 7.96995 11.5138 6.65159C10.7228 5.80432 9.53097 5.40354 8.40246 5.60745ZM10.8739 7.52698C11.0919 7.63948 11.2044 7.85393 11.1622 8.07893C11.1411 8.19143 10.9618 8.38831 9.83332 9.52034C9.11261 10.241 8.48332 10.8563 8.43058 10.8844C8.30754 10.9477 8.11066 10.9477 7.98761 10.8844C7.93488 10.8563 7.6466 10.5821 7.34074 10.2762C6.89074 9.81916 6.78527 9.69612 6.76769 9.59065C6.71144 9.28479 6.95051 9.00002 7.25988 9.00002C7.44269 9.00002 7.50246 9.0387 7.86808 9.39729L8.19152 9.72073L9.23918 8.6801C9.81222 8.10706 10.329 7.60432 10.3853 7.56565C10.4978 7.48127 10.7439 7.46018 10.8739 7.52698Z"/>
  </symbol>
  <symbol id="wifi" viewBox="0 0 18 18">
    <path d="M8.19112 0.566065C7.33682 0.653955 6.28214 0.952783 5.50518 1.33247C4.52432 1.81411 3.31495 2.76685 3.25167 3.10786C3.18136 3.47349 3.4169 3.7688 3.77901 3.7688C3.97589 3.7688 4.03917 3.73364 4.37667 3.4313C4.9462 2.92153 5.41026 2.60513 6.02198 2.3063C7.89229 1.39575 10.086 1.39575 11.9704 2.30278C12.5646 2.59106 13.0462 2.9145 13.6228 3.4313C13.9603 3.73364 14.0235 3.7688 14.2204 3.7688C14.586 3.7688 14.8146 3.477 14.7513 3.10083C14.7056 2.85122 13.8302 2.10239 13.0251 1.62075C12.1849 1.12153 11.204 0.773486 10.1774 0.615283C9.74151 0.548486 8.64112 0.520361 8.19112 0.566065Z"/>
    <path d="M0.316406 2.70004C0.137109 2.78793 0.0351562 2.9602 0.0351562 3.17816C0.0386719 3.33285 0.193359 3.71957 1.24453 6.16996L2.45039 8.98246L3.0375 8.99301C3.44531 9.00004 3.62109 8.98949 3.62109 8.96137C3.62109 8.88754 1.04766 2.91801 0.973828 2.8266C0.829687 2.64379 0.541406 2.58754 0.316406 2.70004Z"/>
    <path d="M8.33223 2.67545C7.09824 2.81959 5.93457 3.35397 5.03457 4.20123C4.80605 4.41217 4.73926 4.5317 4.73926 4.72858C4.73926 5.09068 5.03457 5.32623 5.39668 5.25943C5.47754 5.24186 5.59707 5.16451 5.74121 5.03795C6.45488 4.39459 7.2248 3.99733 8.12129 3.80748C8.33926 3.76178 8.57832 3.7442 9.0002 3.7442C9.64004 3.7442 9.93887 3.79342 10.4943 3.97623C11.1166 4.18365 11.6721 4.51412 12.224 5.00983C12.3963 5.161 12.5229 5.24186 12.6037 5.25943C12.9658 5.32623 13.2611 5.09068 13.2611 4.72858C13.2611 4.51764 13.1873 4.39811 12.892 4.13092C11.6686 3.0235 9.98457 2.48561 8.33223 2.67545Z"/>
    <path d="M17.2055 2.68598C17.1457 2.7141 17.0648 2.77387 17.0262 2.8266C16.9523 2.91801 14.3789 8.88754 14.3789 8.96137C14.3789 8.98949 14.5547 9.00004 14.9625 8.99301L15.5496 8.98246L16.7555 6.16996C18.0809 3.08324 18.0598 3.14301 17.884 2.87934C17.7398 2.66137 17.4516 2.58051 17.2055 2.68598Z"/>
    <path d="M8.33948 4.83398C8.17776 4.86211 7.92464 4.92539 7.77698 4.97812C7.06331 5.21367 6.30042 5.77266 6.23714 6.09609C6.17034 6.46875 6.39885 6.75 6.77854 6.75C6.96135 6.75 6.99299 6.73242 7.37268 6.42305C7.8051 6.07148 8.39221 5.87109 9.00042 5.87109C9.60862 5.87109 10.1957 6.07148 10.6282 6.42305C11.0114 6.73594 11.036 6.75 11.2293 6.75C11.5282 6.75 11.7285 6.58125 11.7672 6.3C11.7989 6.07148 11.725 5.92734 11.4578 5.68477C11.0535 5.31562 10.4172 4.99219 9.84417 4.86914C9.47151 4.78828 8.70159 4.7707 8.33948 4.83398Z"/>
    <path d="M8.58862 6.90819C8.18432 7.01717 7.80112 7.31248 7.73432 7.56209C7.64994 7.86795 7.8644 8.19842 8.17026 8.24412C8.33901 8.27225 8.5394 8.19842 8.72924 8.04373C8.80307 7.98397 8.87338 7.96287 8.99994 7.96287C9.12651 7.96287 9.19682 7.98397 9.27065 8.04373C9.58002 8.29334 9.89994 8.31795 10.1109 8.10702C10.255 7.96287 10.3183 7.74842 10.2656 7.56209C10.2234 7.40741 9.97026 7.15077 9.74526 7.03475C9.40424 6.86248 8.95073 6.81327 8.58862 6.90819Z"/>
    <path d="M1.16367 10.0758C0.724219 10.1953 0.362109 10.4977 0.147656 10.9301L0.0175781 11.1938V13.2012V15.2086L0.147656 15.4723C0.225 15.6305 0.348047 15.8063 0.457031 15.9153C0.801562 16.2528 1.15664 16.3828 1.74727 16.3828H2.10938V16.7485C2.10938 17.0649 2.11992 17.1246 2.19023 17.2301C2.40117 17.5465 2.87227 17.5465 3.0832 17.2301C3.15352 17.1246 3.16406 17.0649 3.16406 16.7485V16.3828H9H14.8359V16.7485C14.8359 17.0649 14.8465 17.1246 14.9168 17.2301C15.1277 17.5465 15.5988 17.5465 15.8098 17.2301C15.8801 17.1246 15.8906 17.0649 15.8906 16.7485V16.3828H16.2527C16.8434 16.3828 17.1984 16.2528 17.543 15.9153C17.652 15.8063 17.775 15.6305 17.8523 15.4723L17.9824 15.2086V13.2012V11.1938L17.8523 10.9301C17.7047 10.6348 17.448 10.3571 17.1949 10.2164C16.8082 10.0055 17.3215 10.0196 8.98242 10.0231C2.43281 10.0231 1.32539 10.0301 1.16367 10.0758ZM11.4223 12.2625C11.4715 12.2977 11.5453 12.3821 11.584 12.4489C11.6473 12.5578 11.6543 12.6317 11.6543 13.2012C11.6543 13.7707 11.6473 13.8446 11.584 13.9535C11.475 14.1399 11.3414 14.2207 11.1445 14.2207C10.9477 14.2207 10.8141 14.1399 10.7051 13.9535C10.6488 13.8551 10.6348 13.7531 10.6242 13.3699C10.6066 12.7969 10.6348 12.5543 10.7332 12.4032C10.8914 12.1676 11.2113 12.1043 11.4223 12.2625ZM13.5316 12.2625C13.5809 12.2977 13.6547 12.3821 13.6934 12.4489C13.7566 12.5578 13.7637 12.6317 13.7637 13.2012C13.7637 13.7707 13.7566 13.8446 13.6934 13.9535C13.5844 14.1399 13.4508 14.2207 13.2539 14.2207C13.057 14.2207 12.9234 14.1399 12.8145 13.9535C12.7582 13.8551 12.7441 13.7531 12.7336 13.3699C12.716 12.7969 12.7441 12.5543 12.8426 12.4032C13.0008 12.1676 13.3207 12.1043 13.5316 12.2625ZM15.641 12.2625C15.6902 12.2977 15.7641 12.3821 15.8027 12.4489C15.866 12.5578 15.873 12.6317 15.873 13.2012C15.873 13.7707 15.866 13.8446 15.8027 13.9535C15.6937 14.1399 15.5602 14.2207 15.3633 14.2207C15.1664 14.2207 15.0328 14.1399 14.9238 13.9535C14.8676 13.8551 14.8535 13.7531 14.843 13.3699C14.8254 12.7969 14.8535 12.5543 14.952 12.4032C15.1102 12.1676 15.4301 12.1043 15.641 12.2625Z"/>
  </symbol>
  <symbol id="places" viewBox="0 0 18 18">
    <ellipse cx="9.27826" cy="5.18916" rx="2.4538" ry="2.44991"/>
    <path fill-rule="evenodd" clip-rule="evenodd" d="M11.4387 7.26562C10.8931 7.8312 10.1268 8.18308 9.27826 8.18308C8.47445 8.18308 7.7445 7.86736 7.20603 7.35335C4.81505 8.547 3.09263 11.6231 3.0105 15.2606H15.8186C15.7344 11.5302 13.9251 8.39028 11.4387 7.26562Z"/>
  </symbol>
</svg>
