<svg width="211" height="186" viewBox="0 0 211 186" fill="none" xmlns="http://www.w3.org/2000/svg">
<path d="M10.5199 102.954C-3.6316 106.099 0.693335 129.161 6.58979 140.299C21.1576 167.816 43.9333 173.712 45.8988 175.677C47.8643 177.643 81.2775 179.608 89.1394 183.539C97.0014 187.47 140.242 183.539 148.104 179.608C155.966 175.677 187.414 148.161 191.345 144.23C195.276 140.299 197.241 134.402 197.241 128.506C197.241 122.609 191.345 124.575 189.379 128.506C187.414 132.437 173.655 144.23 157.931 159.954C142.208 175.677 104.863 171.747 91.1049 169.781C77.3465 167.816 79.312 159.954 77.3465 159.954C75.3811 159.954 79.312 152.092 83.243 156.023C87.174 159.954 95.0359 157.988 118.622 159.954C142.208 161.919 159.897 144.23 163.828 140.299C167.759 136.367 179.552 126.54 183.483 122.609C187.414 118.679 183.483 108.851 181.517 110.817C179.552 112.782 177.586 114.748 171.69 116.713C165.793 118.679 128.449 120.644 108.794 120.644C89.1394 120.644 67.5191 138.333 59.6572 142.264C51.7952 146.195 63.5882 159.954 67.5191 161.919C71.4501 163.885 67.5191 167.816 61.6227 165.85C55.7262 163.885 51.7952 159.954 45.8988 157.988C40.0023 156.023 40.0023 144.23 41.9678 142.264C43.9333 140.299 45.8988 135.631 49.8298 132.437C53.7607 129.243 45.8988 122.609 43.9333 120.644C41.9678 118.679 43.9333 116.713 45.8988 116.713C47.8643 116.713 61.6227 100.989 63.5881 97.0582C65.5536 93.1272 87.174 89.1963 89.1394 87.2308C91.1049 85.2653 67.5191 75.4377 63.5881 73.4722C59.6572 71.5067 51.7952 71.5067 51.7952 79.3686C51.7952 87.2306 47.8643 102.954 43.9333 104.92C40.0023 106.885 28.2092 99.0234 10.5199 102.954Z" fill="#B01A38"/>
<path d="M120.588 2.71386C87.5677 -5.14807 67.5205 4.68063 65.5543 24.3342C63.8624 27.4787 56.9879 28.2652 53.7621 28.2655C34.1073 28.2655 21.2182 31.1708 8.5557 42.0247C-5.20224 53.8176 -0.234214 78.9049 8.55573 83.2998C16.4178 87.2308 38.6932 91.8161 43.9344 95.0919C31.3553 69.9337 52.4511 42.0238 65.5543 32.1964C93.0711 28.2655 87.1746 28.2655 100.933 20.4035C111.94 14.114 127.795 17.7829 134.346 20.4035C143.518 24.3345 159.898 38.0937 165.794 55.7822C173.355 78.4665 165.794 81.3335 161.863 95.0919C157.932 108.85 161.863 106.885 165.794 106.885C169.725 106.885 173.656 95.0919 181.518 95.0919C187.807 95.0919 188.069 99.0229 187.414 100.988C186.759 106.23 186.235 115.926 189.38 112.781C192.524 109.636 209.035 104.92 211 95.0919C199.208 87.2308 196.586 74.7819 197.242 67.5751C203.531 67.5751 203.793 59.7132 203.138 55.7822C197.242 49.2306 183.09 34.555 173.656 28.2655C164.222 21.9759 156.622 25.6448 154.001 28.2655C152.036 23.0242 142.601 10.5761 120.588 2.71386Z" fill="#B01A38"/>
<path d="M83.2456 100.989C69.0941 104.134 53.7625 118.678 59.6598 124.575C75.3837 132.437 79.264 123.309 91.1075 112.781C108.796 97.0581 130.417 104.92 138.279 104.92C146.141 104.92 150.072 100.989 144.176 95.0926C138.279 89.1961 114.692 89.196 106.83 91.1616C103.017 92.1151 100.935 97.058 83.2456 100.989Z" fill="#B01A38"/>
<path fill-rule="evenodd" clip-rule="evenodd" d="M63.5895 67.5759C55.7276 61.6794 48.652 46.3488 67.5207 40.0593C79.3136 36.1283 81.2791 36.1283 82.7533 36.1283C84.2275 36.1283 85.2103 36.1283 95.0377 32.1973C114.693 24.3354 130.416 30.2319 140.244 40.0593C144.68 44.4956 149.116 47.7302 152.649 50.3058C156.941 53.4356 159.899 55.592 159.899 57.7485C159.899 58.156 159.92 58.7959 159.947 59.6112C160.179 66.6604 160.845 86.8232 152.036 83.2998C142.209 79.3688 124.519 81.3343 118.623 83.2998C112.726 85.2652 98.9687 87.2307 87.1758 77.4033C79.0082 70.597 69.269 68.701 65.1004 67.8895C64.4539 67.7636 63.9414 67.6638 63.5895 67.5759ZM118.623 77.4033C108.14 76.093 88.3546 69.9345 93.0717 55.783C98.9682 38.0937 114.692 38.0937 118.623 38.0937C122.554 38.0937 138.278 47.9211 142.209 57.7485C146.14 67.5759 148.106 75.4378 138.278 65.6104C128.451 55.783 120.588 53.8175 118.623 59.714C117.695 62.4998 118.521 66.602 119.236 70.1547C120.036 74.1215 120.697 77.4033 118.623 77.4033Z" fill="#B01A38"/>
</svg>
