<svg width="211" height="186" viewBox="0 0 211 186" fill="none" xmlns="http://www.w3.org/2000/svg">
<path d="M10.5199 102.954C-3.6316 106.099 0.693335 129.16 6.58979 140.298C21.1576 167.815 43.9333 173.712 45.8988 175.677C47.8643 177.643 81.2775 179.608 89.1394 183.539C97.0014 187.47 140.242 183.539 148.104 179.608C155.966 175.677 187.414 148.16 191.345 144.229C195.276 140.298 197.241 134.402 197.241 128.506C197.241 122.609 191.345 124.575 189.379 128.506C187.414 132.437 173.655 144.229 157.931 159.953C142.208 175.677 104.863 171.746 91.1049 169.781C77.3465 167.815 79.312 159.953 77.3465 159.953C75.3811 159.953 79.312 152.091 83.243 156.022C87.174 159.953 95.0359 157.988 118.622 159.953C142.208 161.919 159.897 144.229 163.828 140.298C167.759 136.367 179.552 126.54 183.483 122.609C187.414 118.678 183.483 108.851 181.517 110.816C179.552 112.782 177.586 114.747 171.69 116.713C165.793 118.678 128.449 120.644 108.794 120.644C89.1394 120.644 67.5191 138.333 59.6572 142.264C51.7952 146.195 63.5882 159.953 67.5191 161.919C71.4501 163.884 67.5191 167.815 61.6227 165.85C55.7262 163.884 51.7952 159.953 45.8988 157.988C40.0023 156.022 40.0023 144.229 41.9678 142.264C43.9333 140.298 45.8988 135.63 49.8298 132.437C53.7607 129.243 45.8988 122.609 43.9333 120.644C41.9678 118.678 43.9333 116.713 45.8988 116.713C47.8643 116.713 61.6227 100.989 63.5881 97.0578C65.5536 93.1269 87.174 89.1959 89.1394 87.2304C91.1049 85.2649 67.5191 75.4373 63.5881 73.4718C59.6572 71.5063 51.7952 71.5063 51.7952 79.3683C51.7952 87.2302 47.8643 102.954 43.9333 104.919C40.0023 106.885 28.2092 99.023 10.5199 102.954Z" fill="#B31E36"/>
<path d="M120.588 2.71386C87.5677 -5.14807 67.5205 4.68063 65.5543 24.3342C63.8624 27.4787 56.9879 28.2652 53.7621 28.2655C34.1073 28.2655 21.2182 31.1708 8.5557 42.0247C-5.20224 53.8176 -0.234214 78.9049 8.55573 83.2998C16.4178 87.2308 38.6932 91.8161 43.9344 95.0919C31.3553 69.9337 52.4511 42.0238 65.5543 32.1964C93.0711 28.2655 87.1746 28.2655 100.933 20.4035C111.94 14.114 127.795 17.7829 134.346 20.4035C143.518 24.3345 159.898 38.0937 165.794 55.7822C173.355 78.4665 165.794 81.3335 161.863 95.0919C157.932 108.85 161.863 106.885 165.794 106.885C169.725 106.885 173.656 95.0919 181.518 95.0919C187.807 95.0919 188.069 99.0229 187.414 100.988C186.759 106.23 186.235 115.926 189.38 112.781C192.524 109.636 209.035 104.92 211 95.0919C199.208 87.2308 196.586 74.7819 197.242 67.5751C203.531 67.5751 203.793 59.7132 203.138 55.7822C197.242 49.2306 183.09 34.555 173.656 28.2655C164.222 21.9759 156.622 25.6448 154.001 28.2655C152.036 23.0242 142.601 10.5761 120.588 2.71386Z" fill="#B31E36"/>
<path d="M83.2456 100.989C69.0941 104.134 53.7625 118.679 59.6598 124.575C75.3837 132.437 79.264 123.31 91.1075 112.782C108.796 97.0584 130.417 104.92 138.279 104.92C146.141 104.92 150.072 100.989 144.176 95.0929C138.279 89.1964 114.692 89.1963 106.83 91.1619C103.017 92.1154 100.935 97.0583 83.2456 100.989Z" fill="#B31E36"/>
<path fill-rule="evenodd" clip-rule="evenodd" d="M63.5893 67.5754C55.7274 61.679 48.6518 46.3484 67.5204 40.0588C79.3133 36.1279 81.2789 36.1279 82.7531 36.1279C84.2272 36.1279 85.21 36.1279 95.0375 32.1969C114.692 24.335 130.416 30.2314 140.244 40.0588C144.68 44.4951 149.116 47.7298 152.648 50.3053C156.941 53.4352 159.898 55.5916 159.898 57.748C159.898 58.1556 159.92 58.7954 159.946 59.6108C160.179 66.6599 160.845 86.8228 152.036 83.2993C142.208 79.3683 124.519 81.3338 118.623 83.2993C112.726 85.2648 98.9684 87.2303 87.1755 77.4029C79.0079 70.5965 69.2687 68.7006 65.1002 67.889C64.4537 67.7632 63.9412 67.6634 63.5893 67.5754ZM118.623 77.4029C108.14 76.0925 88.3543 69.934 93.0715 55.7826C98.968 38.0932 114.692 38.0932 118.623 38.0932C122.554 38.0932 138.278 47.9206 142.209 57.748C146.14 67.5754 148.105 75.4374 138.278 65.61C128.45 55.7826 120.588 53.8171 118.623 59.7135C117.694 62.4994 118.521 66.6015 119.236 70.1543C120.035 74.121 120.696 77.4029 118.623 77.4029Z" fill="#B31E36"/>
</svg>
