<svg xmlns="http://www.w3.org/2000/svg" xmlns:xlink="http://www.w3.org/1999/xlink" width="0" height="0" style="position:absolute">
  <symbol id="facebook" viewBox="0 0 22 21">
    <path d="M21.5 10.5C21.5 4.70039 16.7996 0 11 0C5.20039 0 0.5 4.70039 0.5 10.5C0.5 15.7418 4.33906 20.0854 9.35938 20.8729V13.5352H6.69336V10.5H9.35938V8.18672C9.35938 5.55557 10.9262 4.10156 13.3256 4.10156C14.474 4.10156 15.6758 4.30664 15.6758 4.30664V6.89063H14.351C13.0467 6.89063 12.6406 7.70068 12.6406 8.53125V10.5H15.5527L15.0872 13.5352H12.6406V20.8729C17.6609 20.0854 21.5 15.7418 21.5 10.5Z"/>
  </symbol>
  <symbol id="vk" viewBox="0 0 22 21">
    <path d="M9.66706 0.0615635C7.77214 0.307657 6.03717 1.03363 4.5196 2.20668C4.03971 2.57992 3.2235 3.38383 2.82565 3.87602C1.69362 5.27875 0.943034 6.93578 0.623112 8.74047C0.508268 9.38031 0.463151 10.9184 0.536979 11.6198C0.713346 13.2563 1.28346 14.86 2.1694 16.2217C2.57135 16.837 2.92409 17.2758 3.4737 17.8377C5.19225 19.6014 7.36198 20.6678 9.83112 20.9549C10.3807 21.0206 11.7178 21.0082 12.3126 20.9385C15.3805 20.5571 18.1204 18.8385 19.8307 16.2217C20.6921 14.9051 21.2417 13.3916 21.4385 11.8125C21.5206 11.1481 21.5206 9.8561 21.4385 9.18754C21.0612 6.14418 19.3467 3.39613 16.7628 1.69809C15.4133 0.812149 13.9122 0.262541 12.3126 0.0615635C11.6891 -0.0122643 10.2577 -0.0122643 9.66706 0.0615635ZM11.9065 6.42309C11.9803 6.46 12.0624 6.55434 12.1116 6.65688C12.1813 6.81684 12.1895 6.94399 12.1895 8.2893C12.1895 9.49516 12.2018 9.78637 12.2551 9.96274C12.3372 10.2457 12.4684 10.377 12.6612 10.377C12.7883 10.377 12.8458 10.3442 13.0385 10.1432C13.6333 9.53617 14.2403 8.52719 14.753 7.31313C14.9745 6.78403 15.077 6.66918 15.3764 6.62407C15.6512 6.58305 17.9604 6.64047 18.1286 6.69379C18.4198 6.78403 18.4198 7.06293 18.1368 7.64946C17.9358 8.06781 17.6856 8.43285 16.8243 9.58949C16.4387 10.1022 16.0901 10.5944 16.045 10.6887C15.9383 10.902 15.9383 11.1686 16.0409 11.3368C16.086 11.4065 16.4715 11.8043 16.894 12.2227C17.9563 13.2727 18.3419 13.7936 18.3419 14.1791C18.3419 14.335 18.3173 14.3883 18.2024 14.5032L18.0589 14.6467L16.6725 14.6344L15.2862 14.6221L15.0073 14.4868C14.7079 14.3391 14.5192 14.1668 13.7932 13.3793C13.5389 13.1004 13.2559 12.8379 13.1698 12.7969C12.8335 12.6247 12.5669 12.7354 12.3987 13.125C12.3208 13.3055 12.288 13.4819 12.2059 14.1873C12.1731 14.4334 12.0214 14.5852 11.7589 14.6221C11.6522 14.6385 11.2667 14.6426 10.9016 14.6303C10.3438 14.6139 10.1633 14.5893 9.74909 14.4827C8.81803 14.2407 7.92389 13.7034 7.18561 12.9364C6.21354 11.9233 5.04049 10.0489 4.03561 7.89145C3.58034 6.92348 3.55983 6.82094 3.78952 6.70199C3.89206 6.64867 4.10534 6.64047 5.11842 6.64047C6.27917 6.63637 6.33249 6.64047 6.46784 6.7266C6.61549 6.81684 6.64421 6.87016 7.02155 7.70688C7.59577 8.97836 8.4653 10.2498 8.84674 10.377C9.27741 10.5205 9.44967 10.0571 9.44967 8.73637C9.44967 7.90375 9.40046 7.48539 9.27331 7.25981C9.17487 7.08754 8.91647 6.90297 8.7155 6.86606C8.52682 6.82914 8.51862 6.79223 8.66217 6.63227C8.90007 6.36156 8.90417 6.35746 10.4176 6.35746C11.5784 6.35746 11.804 6.36567 11.9065 6.42309Z"/>
  </symbol>
  <symbol id="odnoklasniki" viewBox="0 0 22 21">
    <path fill-rule="evenodd" clip-rule="evenodd" d="M0.5 10.5C0.5 4.70101 5.20101 0 11 0C16.799 0 21.5 4.70101 21.5 10.5C21.5 16.299 16.799 21 11 21C5.20101 21 0.5 16.299 0.5 10.5ZM10.9929 10.6686C12.5412 10.6686 13.7998 9.45348 13.7998 7.95969C13.7998 6.46542 12.5412 5.25 10.9929 5.25C9.44486 5.25 8.1859 6.46542 8.1859 7.95969C8.1859 9.45348 9.44486 10.6686 10.9929 10.6686ZM13.7657 12.2286C13.2582 12.5363 12.7071 12.7545 12.1357 12.8801L13.7049 14.395C14.0264 14.7046 14.0264 15.2075 13.7049 15.5175C13.3838 15.8275 12.8633 15.8275 12.5425 15.5175L10.9997 14.0289L9.45826 15.5175C9.29753 15.6723 9.08692 15.7498 8.87631 15.7498C8.66603 15.7498 8.45576 15.6723 8.29503 15.5175C7.97391 15.2075 7.97391 14.705 8.29469 14.395L9.86403 12.8801C9.29266 12.7545 8.74161 12.5359 8.23406 12.2286C7.84996 11.9948 7.73458 11.505 7.97659 11.1339C8.21794 10.7623 8.72549 10.6505 9.11026 10.8843C10.2594 11.582 11.7397 11.5822 12.8895 10.8843C13.2743 10.6505 13.7817 10.7623 14.0235 11.1339C14.2655 11.5047 14.1498 11.9948 13.7657 12.2286Z"/>
    <path d="M10.9933 6.83789C11.6342 6.83789 12.1555 7.34095 12.1555 7.95961C12.1555 8.57777 11.6342 9.08116 10.9933 9.08116C10.3529 9.08116 9.83105 8.57777 9.83105 7.95961C9.83105 7.34095 10.3529 6.83789 10.9933 6.83789Z"/>
  </symbol>
  <symbol id="instagram" viewBox="0 0 22 21">
    <path fill-rule="evenodd" clip-rule="evenodd" d="M11 0C5.20101 0 0.5 4.70101 0.5 10.5C0.5 16.299 5.20101 21 11 21C16.799 21 21.5 16.299 21.5 10.5C21.5 4.70101 16.799 0 11 0ZM8.60393 4.84633C9.20127 4.81915 9.39214 4.8125 10.913 4.8125H10.9113C12.4326 4.8125 12.6228 4.81915 13.2201 4.84633C13.8163 4.87363 14.2235 4.96802 14.5805 5.1065C14.9491 5.24942 15.2607 5.44076 15.5722 5.75226C15.8837 6.06353 16.075 6.37597 16.2185 6.74429C16.3562 7.10036 16.4507 7.5073 16.4787 8.10347C16.5055 8.70081 16.5125 8.89168 16.5125 10.4126C16.5125 11.9334 16.5055 12.1238 16.4787 12.7212C16.4507 13.3171 16.3562 13.7242 16.2185 14.0804C16.075 14.4486 15.8837 14.761 15.5722 15.0723C15.261 15.3838 14.949 15.5756 14.5808 15.7186C14.2245 15.8571 13.8171 15.9515 13.2209 15.9788C12.6236 16.006 12.4333 16.0126 10.9123 16.0126C9.39156 16.0126 9.20081 16.006 8.60347 15.9788C8.00741 15.9515 7.60036 15.8571 7.24405 15.7186C6.87597 15.5756 6.56353 15.3838 6.25238 15.0723C5.94099 14.761 5.74965 14.4486 5.6065 14.0802C5.46813 13.7242 5.37375 13.3172 5.34633 12.7211C5.31927 12.1237 5.3125 11.9334 5.3125 10.4126C5.3125 8.89168 5.3195 8.70069 5.34622 8.10335C5.37305 7.50741 5.46755 7.10036 5.60639 6.74417C5.74989 6.37597 5.94122 6.06353 6.25273 5.75226C6.564 5.44087 6.87643 5.24954 7.24475 5.1065C7.60082 4.96802 8.00776 4.87363 8.60393 4.84633Z"/>
    <path fill-rule="evenodd" clip-rule="evenodd" d="M10.4977 5.90911C10.5952 5.90896 10.7002 5.90901 10.8134 5.90906L11.0001 5.90911C12.4953 5.90911 12.6725 5.91448 13.263 5.94132C13.809 5.96628 14.1053 6.05752 14.3027 6.13417C14.564 6.23567 14.7503 6.357 14.9462 6.553C15.1422 6.74901 15.2636 6.93568 15.3653 7.19701C15.442 7.39418 15.5333 7.69052 15.5582 8.23652C15.585 8.82686 15.5908 9.0042 15.5908 10.4987C15.5908 11.9932 15.585 12.1706 15.5582 12.7609C15.5332 13.3069 15.442 13.6032 15.3653 13.8004C15.2638 14.0617 15.1422 14.2478 14.9462 14.4437C14.7502 14.6397 14.5641 14.7611 14.3027 14.8626C14.1055 14.9396 13.809 15.0306 13.263 15.0555C12.6726 15.0824 12.4953 15.0882 11.0001 15.0882C9.50473 15.0882 9.32751 15.0824 8.73717 15.0555C8.19116 15.0303 7.89483 14.9391 7.69731 14.8624C7.43597 14.7609 7.24931 14.6396 7.0533 14.4436C6.8573 14.2476 6.73597 14.0614 6.63423 13.7999C6.55758 13.6028 6.46623 13.3064 6.44138 12.7604C6.41455 12.1701 6.40918 11.9928 6.40918 10.4973C6.40918 9.00186 6.41455 8.82546 6.44138 8.23512C6.46635 7.68912 6.55758 7.39278 6.63423 7.19538C6.73573 6.93404 6.8573 6.74737 7.0533 6.55137C7.24931 6.35537 7.43597 6.23403 7.69731 6.1323C7.89471 6.0553 8.19116 5.9643 8.73717 5.93922C9.25378 5.91588 9.45398 5.90888 10.4977 5.90771V5.90911ZM13.9893 6.83896C13.6183 6.83896 13.3173 7.13961 13.3173 7.51073C13.3173 7.88174 13.6183 8.18274 13.9893 8.18274C14.3603 8.18274 14.6613 7.88174 14.6613 7.51073C14.6613 7.13973 14.3603 6.83872 13.9893 6.83872V6.83896ZM8.1242 10.5C8.1242 8.91183 9.4118 7.6242 10.9999 7.62413C12.5881 7.62413 13.8755 8.9118 13.8755 10.5C13.8755 12.0882 12.5883 13.3753 11.0001 13.3753C9.41186 13.3753 8.1242 12.0882 8.1242 10.5Z"/>
    <path d="M11.0005 8.6333C12.0314 8.6333 12.8672 9.46899 12.8672 10.5C12.8672 11.5309 12.0314 12.3667 11.0005 12.3667C9.96948 12.3667 9.13379 11.5309 9.13379 10.5C9.13379 9.46899 9.96948 8.6333 11.0005 8.6333Z"/>
  </symbol>
  <symbol id="telegram" viewBox="0 0 22 21">
    <path fill-rule="evenodd" clip-rule="evenodd" d="M21.5 10.5C21.5 16.299 16.799 21 11 21C5.20101 21 0.5 16.299 0.5 10.5C0.5 4.70101 5.20101 0 11 0C16.799 0 21.5 4.70101 21.5 10.5ZM7.53129 9.53816C6.47946 9.99741 5.39872 10.4693 4.41049 11.0136L4.41042 11.0137C3.89439 11.3915 4.58029 11.6587 5.22371 11.9094C5.326 11.9492 5.42722 11.9887 5.52237 12.0281C5.60154 12.0524 5.68206 12.0781 5.76365 12.1041C6.47925 12.332 7.2772 12.5863 7.97193 12.2038C9.11318 11.5483 10.1902 10.7903 11.2664 10.033C11.619 9.78482 11.9715 9.53675 12.3261 9.29236C12.3427 9.28173 12.3615 9.26958 12.382 9.2563C12.6841 9.06045 13.3635 8.62002 13.1122 9.2269C12.5179 9.87685 11.8813 10.4522 11.2413 11.0307C10.8099 11.4205 10.377 11.8118 9.95434 12.2283C9.58624 12.5274 9.20403 13.1288 9.6162 13.5477C10.5655 14.2122 11.5297 14.8607 12.4933 15.5088C12.8068 15.7197 13.1204 15.9306 13.4333 16.1419C13.9636 16.5654 14.7925 16.2229 14.9091 15.5612C14.9609 15.2569 15.013 14.9525 15.065 14.6481C15.3527 12.9661 15.6405 11.2834 15.8948 9.5959C15.9293 9.3312 15.9685 9.06651 16.0077 8.80168C16.1027 8.15982 16.1978 7.51717 16.2274 6.87185C16.1509 6.22787 15.3701 6.36947 14.9355 6.51427C12.702 7.36416 10.4908 8.27704 8.28831 9.20603C8.03881 9.31657 7.7859 9.42699 7.53129 9.53816Z"/>
  </symbol>
  <symbol id="youtube" viewBox="0 0 22 21">
    <path fill-rule="evenodd" clip-rule="evenodd" d="M11 0C5.20101 0 0.5 4.70101 0.5 10.5C0.5 16.299 5.20101 21 11 21C16.799 21 21.5 16.299 21.5 10.5C21.5 4.70101 16.799 0 11 0ZM15.3757 6.89033C15.8576 7.02257 16.2371 7.41222 16.3659 7.90703C16.6 8.80383 16.6 10.675 16.6 10.675C16.6 10.675 16.6 12.5461 16.3659 13.443C16.2371 13.9378 15.8576 14.3274 15.3757 14.4597C14.5024 14.7 11 14.7 11 14.7C11 14.7 7.49765 14.7 6.62424 14.4597C6.14232 14.3274 5.76279 13.9378 5.63399 13.443C5.4 12.5461 5.4 10.675 5.4 10.675C5.4 10.675 5.4 8.80383 5.63399 7.90703C5.76279 7.41222 6.14232 7.02257 6.62424 6.89033C7.49765 6.65 11 6.65 11 6.65C11 6.65 14.5024 6.65 15.3757 6.89033Z"/>
    <path d="M9.9502 12.6001V9.1001L12.7502 10.8502L9.9502 12.6001Z"/>
  </symbol>
  <symbol id="eye" viewBox="0 0 20 17">
    <path d="M2.1,9.4c0.4,0.6,1,1.4,1.7,2.2c1.5,1.6,3.6,3.1,6.2,3.1c2.6,0,4.7-1.5,6.2-3.1c0.7-0.8,1.3-1.6,1.7-2.2
          c0.1-0.2,0.3-0.4,0.4-0.6c-0.1-0.2-0.2-0.4-0.4-0.6c-0.4-0.6-1-1.4-1.7-2.2c-1.5-1.6-3.6-3.1-6.2-3.1C7.4,2.9,5.3,4.4,3.8,6
          C3.1,6.8,2.5,7.6,2.1,8.2C2,8.4,1.9,8.6,1.8,8.8C1.9,8.9,2,9.1,2.1,9.4z M19.9,8.4c0,0,0,0-0.7,0.4c0.7,0.4,0.7,0.4,0.7,0.4l0,0
          l0,0l0,0l0,0c0,0,0,0,0,0.1c0,0.1-0.1,0.1-0.1,0.2c-0.1,0.2-0.3,0.5-0.5,0.8c-0.4,0.7-1.1,1.5-1.9,2.4c-1.6,1.7-4.1,3.6-7.4,3.6
          c-3.2,0-5.7-1.9-7.4-3.6c-0.8-0.9-1.5-1.8-1.9-2.4C0.5,9.9,0.4,9.7,0.3,9.5C0.2,9.4,0.2,9.3,0.1,9.2c0,0,0,0,0-0.1l0,0l0,0l0,0
          l0,0c0,0,0,0,0.7-0.4C0.1,8.4,0.1,8.4,0.1,8.4l0,0l0,0l0,0l0,0c0,0,0,0,0-0.1c0-0.1,0.1-0.1,0.1-0.2c0.1-0.2,0.3-0.5,0.5-0.8
          c0.4-0.7,1.1-1.5,1.9-2.4C4.3,3.1,6.8,1.3,10,1.3c3.2,0,5.7,1.9,7.4,3.6c0.8,0.9,1.5,1.8,1.9,2.4c0.2,0.3,0.4,0.6,0.5,0.8
          C19.8,8.2,19.8,8.3,19.9,8.4C19.9,8.3,19.9,8.4,19.9,8.4L19.9,8.4L19.9,8.4L19.9,8.4L19.9,8.4z M19.2,8.8l0.7-0.4
          c0.1,0.2,0.1,0.5,0,0.7L19.2,8.8z M0.1,8.4l0.7,0.4L0.1,9.2C0,8.9,0,8.6,0.1,8.4z M8.3,8.8c0-0.9,0.7-1.7,1.7-1.7
          c0.9,0,1.7,0.7,1.7,1.7c0,0.9-0.7,1.7-1.7,1.7C9.1,10.4,8.3,9.7,8.3,8.8z M10,5.4c-1.8,0-3.3,1.5-3.3,3.3c0,1.8,1.5,3.3,3.3,3.3
          c1.8,0,3.3-1.5,3.3-3.3C13.3,6.9,11.8,5.4,10,5.4z"/>
  </symbol>
  <symbol id="calendar" viewBox="0 0 18 20">
    <path d="M16 2H15V0H13V2H5V0H3V2H2C0.9 2 0 2.9 0 4V18C0 19.1 0.9 20 2 20H16C17.1 20 18 19.1 18 18V4C18 2.9 17.1 2 16 2ZM16 18H2V8H16V18ZM2 6V4H16V6H2ZM4 10H14V12H4V10ZM4 14H11V16H4V14Z"/>
  </symbol>
  <symbol id="angle-right" viewBox="0 0 12 20">
    <path d="M0.230469 18.23L2.00047 20L12.0005 10L2.00047 0L0.230469 1.77L8.46047 10L0.230469 18.23Z"/>
  </symbol>
  <symbol id="angle-left" viewBox="0 0 12 20">
    <path d="M12.0005 1.77L10.2305 0L0.230469 10L10.2305 20L12.0005 18.23L3.77047 10L12.0005 1.77Z"/>
  </symbol>
  <symbol id="arrow-right" viewBox="0 0 23 16">
    <path d="M1 7C0.447715 7 4.82823e-08 7.44772 0 8C-4.82823e-08 8.55228 0.447715 9 1 9L1 7ZM21.7071 8.70711C22.0976 8.31658 22.0976 7.68342 21.7071 7.2929L15.3431 0.928933C14.9526 0.538409 14.3195 0.538409 13.9289 0.928933C13.5384 1.31946 13.5384 1.95262 13.9289 2.34315L19.5858 8L13.9289 13.6569C13.5384 14.0474 13.5384 14.6805 13.9289 15.0711C14.3195 15.4616 14.9526 15.4616 15.3431 15.0711L21.7071 8.70711ZM1 9L21 9L21 7L1 7L1 9Z"/>
  </symbol>
  <symbol id="menu" viewBox="0 0 20 16">
    <path fill-rule="evenodd" clip-rule="evenodd" d="M20 2H0V0H20V2ZM20 9H0V7H20V9ZM20 16H0V14H20V16Z"/>
  </symbol>
  <symbol id="cross" viewBox="0 0 16 16">
    <path d="M16 1.61143L14.3886 0L8 6.38857L1.61143 0L0 1.61143L6.38857 8L0 14.3886L1.61143 16L8 9.61143L14.3886 16L16 14.3886L9.61143 8L16 1.61143Z"/>
  </symbol>
  <symbol id="angle-down" viewBox="0 0 24 24">
    <path d="M15.59 8.58984L11 13.1698L6.41 8.58984L5 9.99984L11 15.9998L17 9.99984L15.59 8.58984Z"/>
  </symbol>
</svg>
